<mxfile host="app.diagrams.net" agent="Mozilla/5.0 (Windows NT 10.0; Win64; x64) AppleWebKit/537.36 (KHTML, like Gecko) Chrome/133.0.0.0 Safari/537.36" version="26.0.16">
  <diagram name="Page-1" id="qtMD5m6gb3XHTpyrKmXv">
    <mxGraphModel dx="3837" dy="2325" grid="1" gridSize="10" guides="1" tooltips="1" connect="1" arrows="1" fold="1" page="1" pageScale="1" pageWidth="827" pageHeight="1169" math="0" shadow="0">
      <root>
        <mxCell id="0" />
        <mxCell id="1" parent="0" />
        <mxCell id="U1SjJoIYEDxiZfXGD_qt-59" value="" style="rounded=0;whiteSpace=wrap;html=1;" vertex="1" parent="1">
          <mxGeometry x="-880" y="-218.07999999999998" width="2020" height="930" as="geometry" />
        </mxCell>
        <mxCell id="U1SjJoIYEDxiZfXGD_qt-45" value="" style="edgeStyle=orthogonalEdgeStyle;rounded=0;orthogonalLoop=1;jettySize=auto;html=1;" edge="1" parent="1">
          <mxGeometry relative="1" as="geometry">
            <mxPoint x="-413.16" y="90" as="sourcePoint" />
            <mxPoint x="-413.1594150000001" y="125.039756097561" as="targetPoint" />
            <Array as="points">
              <mxPoint x="-413.16" y="60" />
              <mxPoint x="-413.16" y="60" />
            </Array>
          </mxGeometry>
        </mxCell>
        <mxCell id="U1SjJoIYEDxiZfXGD_qt-40" value="" style="rounded=0;whiteSpace=wrap;html=1;" vertex="1" parent="1">
          <mxGeometry x="-106" y="-80" width="1040" height="640" as="geometry" />
        </mxCell>
        <mxCell id="U1SjJoIYEDxiZfXGD_qt-4" value="&lt;b&gt;AWS VPC&lt;/b&gt;" style="outlineConnect=0;dashed=0;verticalLabelPosition=bottom;verticalAlign=top;align=center;html=1;shape=mxgraph.aws3.vpc;fillColor=#F58536;gradientColor=none;" vertex="1" parent="1">
          <mxGeometry x="-90" y="-70" width="53.75" height="60" as="geometry" />
        </mxCell>
        <mxCell id="U1SjJoIYEDxiZfXGD_qt-17" value="" style="endArrow=classic;html=1;rounded=0;" edge="1" parent="1">
          <mxGeometry width="50" height="50" relative="1" as="geometry">
            <mxPoint x="-353" y="50" as="sourcePoint" />
            <mxPoint x="-110" y="-30" as="targetPoint" />
            <Array as="points">
              <mxPoint x="-200" y="50" />
            </Array>
          </mxGeometry>
        </mxCell>
        <mxCell id="U1SjJoIYEDxiZfXGD_qt-26" value="&lt;b&gt;KMS&lt;/b&gt;" style="outlineConnect=0;dashed=0;verticalLabelPosition=bottom;verticalAlign=top;align=center;html=1;shape=mxgraph.aws3.kms;fillColor=#759C3E;gradientColor=none;" vertex="1" parent="1">
          <mxGeometry x="80" y="420" width="71.04" height="86.36" as="geometry" />
        </mxCell>
        <mxCell id="U1SjJoIYEDxiZfXGD_qt-37" value="&lt;b&gt;S3 Bucket&lt;/b&gt;&lt;div&gt;&lt;br&gt;&lt;/div&gt;" style="outlineConnect=0;dashed=0;verticalLabelPosition=bottom;verticalAlign=top;align=center;html=1;shape=mxgraph.aws3.s3;fillColor=#E05243;gradientColor=none;" vertex="1" parent="1">
          <mxGeometry x="580" y="430.00000000000006" width="73.33" height="89.15" as="geometry" />
        </mxCell>
        <mxCell id="U1SjJoIYEDxiZfXGD_qt-38" value="" style="group" vertex="1" connectable="0" parent="1">
          <mxGeometry x="20" y="80" width="289.04999999999995" height="190" as="geometry" />
        </mxCell>
        <mxCell id="U1SjJoIYEDxiZfXGD_qt-47" value="" style="group" vertex="1" connectable="0" parent="U1SjJoIYEDxiZfXGD_qt-38">
          <mxGeometry x="150" y="40" width="139.04999999999998" height="150" as="geometry" />
        </mxCell>
        <mxCell id="U1SjJoIYEDxiZfXGD_qt-33" value="" style="points=[];aspect=fixed;html=1;align=center;shadow=0;dashed=0;fillColor=#FF6A00;strokeColor=none;shape=mxgraph.alibaba_cloud.nat_gateway;" vertex="1" parent="U1SjJoIYEDxiZfXGD_qt-47">
          <mxGeometry x="19.857907968083918" width="45.11968521149851" height="36.46300142092031" as="geometry" />
        </mxCell>
        <mxCell id="U1SjJoIYEDxiZfXGD_qt-34" value="&lt;b&gt;NAT &lt;br&gt;Gateway&lt;/b&gt;" style="text;html=1;align=center;verticalAlign=middle;whiteSpace=wrap;rounded=0;" vertex="1" parent="U1SjJoIYEDxiZfXGD_qt-47">
          <mxGeometry y="53.84727272727273" width="79.99999999999996" height="44.87272727272727" as="geometry" />
        </mxCell>
        <mxCell id="U1SjJoIYEDxiZfXGD_qt-32" value="&lt;b&gt;&lt;font style=&quot;color: rgb(0, 0, 0);&quot;&gt;Public Subnet&lt;/font&gt;&lt;/b&gt;" style="sketch=0;outlineConnect=0;gradientColor=none;html=1;whiteSpace=wrap;fontSize=12;fontStyle=0;shape=mxgraph.aws4.group;grIcon=mxgraph.aws4.group_subnet;strokeColor=#879196;fillColor=none;verticalAlign=top;align=left;spacingLeft=30;fontColor=#879196;dashed=0;" vertex="1" parent="U1SjJoIYEDxiZfXGD_qt-47">
          <mxGeometry x="-195.02" y="-81.28" width="334.07" height="231.28" as="geometry" />
        </mxCell>
        <mxCell id="U1SjJoIYEDxiZfXGD_qt-49" value="&lt;b&gt;Internet Gateway&lt;/b&gt;" style="outlineConnect=0;dashed=0;verticalLabelPosition=bottom;verticalAlign=top;align=center;html=1;shape=mxgraph.aws3.internet_gateway;fillColor=#F58534;gradientColor=none;" vertex="1" parent="U1SjJoIYEDxiZfXGD_qt-38">
          <mxGeometry x="30" y="41.28" width="65.86" height="68.72" as="geometry" />
        </mxCell>
        <mxCell id="U1SjJoIYEDxiZfXGD_qt-2" value="&lt;b&gt;S3 Bucket&lt;/b&gt;&lt;div&gt;&lt;br&gt;&lt;/div&gt;" style="outlineConnect=0;dashed=0;verticalLabelPosition=bottom;verticalAlign=top;align=center;html=1;shape=mxgraph.aws3.s3;fillColor=#E05243;gradientColor=none;" vertex="1" parent="1">
          <mxGeometry x="-455.335375" y="288.109756097561" width="80.97525" height="98.4439024390244" as="geometry" />
        </mxCell>
        <mxCell id="U1SjJoIYEDxiZfXGD_qt-6" value="&lt;b&gt;AWS IAM user&lt;/b&gt;" style="outlineConnect=0;dashed=0;verticalLabelPosition=bottom;verticalAlign=top;align=center;html=1;shape=mxgraph.aws3.cloud_2;fillColor=#F58534;gradientColor=none;" vertex="1" parent="1">
          <mxGeometry x="-452.68912500000005" y="129.3292682926829" width="79.3875" height="79.39024390243902" as="geometry" />
        </mxCell>
        <mxCell id="U1SjJoIYEDxiZfXGD_qt-7" value="&lt;font style=&quot;font-size: 10px;&quot;&gt;Amazon DynamoDB&lt;/font&gt;" style="sketch=0;outlineConnect=0;fontColor=#232F3E;gradientColor=none;strokeColor=#ffffff;fillColor=#232F3E;dashed=0;verticalLabelPosition=middle;verticalAlign=bottom;align=center;html=1;whiteSpace=wrap;fontSize=10;fontStyle=1;spacing=3;shape=mxgraph.aws4.productIcon;prIcon=mxgraph.aws4.dynamodb;" vertex="1" parent="1">
          <mxGeometry x="-455.6" y="468.0609756097561" width="84.68" height="116.4390243902439" as="geometry" />
        </mxCell>
        <mxCell id="U1SjJoIYEDxiZfXGD_qt-14" value="" style="edgeStyle=orthogonalEdgeStyle;rounded=0;orthogonalLoop=1;jettySize=auto;html=1;" edge="1" parent="1">
          <mxGeometry relative="1" as="geometry">
            <mxPoint x="-413.24941500000006" y="233.06585365853658" as="sourcePoint" />
            <mxPoint x="-413.24941500000006" y="288.109756097561" as="targetPoint" />
          </mxGeometry>
        </mxCell>
        <mxCell id="U1SjJoIYEDxiZfXGD_qt-15" value="" style="edgeStyle=orthogonalEdgeStyle;rounded=0;orthogonalLoop=1;jettySize=auto;html=1;" edge="1" parent="1">
          <mxGeometry relative="1" as="geometry">
            <mxPoint x="-413.24941500000006" y="413.01707317073175" as="sourcePoint" />
            <mxPoint x="-413.24941500000006" y="468.0609756097561" as="targetPoint" />
          </mxGeometry>
        </mxCell>
        <mxCell id="U1SjJoIYEDxiZfXGD_qt-43" value="&lt;b&gt;&lt;font style=&quot;font-size: 18px;&quot;&gt;Terraform&lt;/font&gt;&lt;/b&gt;" style="rounded=1;whiteSpace=wrap;html=1;" vertex="1" parent="1">
          <mxGeometry x="-473" y="22" width="120" height="60" as="geometry" />
        </mxCell>
        <mxCell id="U1SjJoIYEDxiZfXGD_qt-18" value="" style="rounded=1;whiteSpace=wrap;html=1;" vertex="1" parent="1">
          <mxGeometry x="370" y="90" width="484.7518730064535" height="222.72419245538742" as="geometry" />
        </mxCell>
        <mxCell id="U1SjJoIYEDxiZfXGD_qt-19" value="&lt;div&gt;EKS&lt;/div&gt;" style="sketch=0;outlineConnect=0;fontColor=#232F3E;gradientColor=none;strokeColor=#ffffff;fillColor=#232F3E;dashed=0;verticalLabelPosition=middle;verticalAlign=bottom;align=center;html=1;whiteSpace=wrap;fontSize=10;fontStyle=1;spacing=3;shape=mxgraph.aws4.productIcon;prIcon=mxgraph.aws4.eks;" vertex="1" parent="1">
          <mxGeometry x="385.42392323202347" y="100.12382692979033" width="39.66151688234619" height="60.74296157874203" as="geometry" />
        </mxCell>
        <mxCell id="U1SjJoIYEDxiZfXGD_qt-21" value="&lt;b&gt;Deployment&lt;/b&gt;" style="outlineConnect=0;dashed=0;verticalLabelPosition=bottom;verticalAlign=top;align=center;html=1;shape=mxgraph.aws3.worker;fillColor=#D9A741;gradientColor=none;" vertex="1" parent="1">
          <mxGeometry x="546.273408365983" y="160.86678850853235" width="73.45092584850057" height="70.86678850853237" as="geometry" />
        </mxCell>
        <mxCell id="U1SjJoIYEDxiZfXGD_qt-22" value="&lt;b&gt;EBS - PV&lt;/b&gt;" style="outlineConnect=0;dashed=0;verticalLabelPosition=bottom;verticalAlign=top;align=center;html=1;shape=mxgraph.aws3.volume;fillColor=#E05243;gradientColor=none;" vertex="1" parent="1">
          <mxGeometry x="678.4784646404705" y="163.90393658746945" width="49.213332198177895" height="67.82964042959527" as="geometry" />
        </mxCell>
        <mxCell id="U1SjJoIYEDxiZfXGD_qt-23" value="&lt;b&gt;Redis&lt;/b&gt;" style="outlineConnect=0;dashed=0;verticalLabelPosition=bottom;verticalAlign=top;align=center;html=1;shape=mxgraph.aws3.redis;fillColor=#2E73B8;gradientColor=none;" vertex="1" parent="1">
          <mxGeometry x="777.6322568463361" y="167.9534673593856" width="66.10252813724367" height="63.78010965767913" as="geometry" />
        </mxCell>
        <mxCell id="U1SjJoIYEDxiZfXGD_qt-24" value="&lt;div&gt;&lt;br&gt;&lt;/div&gt;" style="points=[];aspect=fixed;html=1;align=center;shadow=0;dashed=0;fillColor=#FF6A00;strokeColor=none;shape=mxgraph.alibaba_cloud.network_acl_access_control_list;" vertex="1" parent="1">
          <mxGeometry x="414.06835209149574" y="163.90393658746945" width="75.47273244999313" height="67.82928335545996" as="geometry" />
        </mxCell>
        <mxCell id="U1SjJoIYEDxiZfXGD_qt-25" value="&lt;b&gt;Network policies&lt;/b&gt;" style="text;html=1;align=center;verticalAlign=middle;whiteSpace=wrap;rounded=0;" vertex="1" parent="1">
          <mxGeometry x="422.0777750841251" y="231.73357701706473" width="66.10252813724367" height="30.371480789371017" as="geometry" />
        </mxCell>
        <mxCell id="U1SjJoIYEDxiZfXGD_qt-30" value="&lt;b&gt;&lt;font style=&quot;color: rgb(0, 0, 0);&quot;&gt;Private Subnet&lt;/font&gt;&lt;/b&gt;" style="sketch=0;outlineConnect=0;gradientColor=none;html=1;whiteSpace=wrap;fontSize=12;fontStyle=0;shape=mxgraph.aws4.group;grIcon=mxgraph.aws4.group_subnet;strokeColor=#879196;fillColor=none;verticalAlign=top;align=left;spacingLeft=30;fontColor=#879196;dashed=0;" vertex="1" parent="1">
          <mxGeometry x="324.8918730064535" y="29.274192455387354" width="574.9681269935463" height="357.27580754461263" as="geometry" />
        </mxCell>
        <mxCell id="U1SjJoIYEDxiZfXGD_qt-54" value="" style="endArrow=classic;html=1;rounded=0;" edge="1" parent="1">
          <mxGeometry width="50" height="50" relative="1" as="geometry">
            <mxPoint x="617" y="320" as="sourcePoint" />
            <mxPoint x="617" y="420" as="targetPoint" />
          </mxGeometry>
        </mxCell>
        <mxCell id="U1SjJoIYEDxiZfXGD_qt-55" value="" style="endArrow=classic;html=1;rounded=0;exitX=0.478;exitY=0.804;exitDx=0;exitDy=0;exitPerimeter=0;" edge="1" parent="1">
          <mxGeometry width="50" height="50" relative="1" as="geometry">
            <mxPoint x="599.7266377093683" y="321.5839417212556" as="sourcePoint" />
            <mxPoint x="160" y="464" as="targetPoint" />
            <Array as="points">
              <mxPoint x="470" y="464.06" />
            </Array>
          </mxGeometry>
        </mxCell>
        <mxCell id="U1SjJoIYEDxiZfXGD_qt-57" value="&lt;b&gt;&lt;font style=&quot;font-size: 18px;&quot;&gt;GitHub&lt;/font&gt;&lt;/b&gt;&lt;div&gt;&lt;b&gt;&lt;font style=&quot;font-size: 18px;&quot;&gt;Actions&lt;/font&gt;&lt;/b&gt;&lt;/div&gt;" style="shape=image;html=1;verticalAlign=top;verticalLabelPosition=bottom;labelBackgroundColor=#ffffff;imageAspect=0;aspect=fixed;image=https://cdn1.iconfinder.com/data/icons/picons-social/57/github_rounded-128.png" vertex="1" parent="1">
          <mxGeometry x="-800" y="143.91000000000003" width="128" height="128" as="geometry" />
        </mxCell>
        <mxCell id="U1SjJoIYEDxiZfXGD_qt-58" value="" style="endArrow=classic;html=1;rounded=0;entryX=0;entryY=0.5;entryDx=0;entryDy=0;" edge="1" parent="1">
          <mxGeometry width="50" height="50" relative="1" as="geometry">
            <mxPoint x="-680" y="210" as="sourcePoint" />
            <mxPoint x="-483.0000000000002" y="51.99999999999977" as="targetPoint" />
            <Array as="points">
              <mxPoint x="-570" y="210" />
              <mxPoint x="-570" y="150" />
              <mxPoint x="-570" y="52" />
            </Array>
          </mxGeometry>
        </mxCell>
      </root>
    </mxGraphModel>
  </diagram>
</mxfile>
